<svg width="36" height="36" viewBox="0 0 36 36" fill="none" xmlns="http://www.w3.org/2000/svg">
<rect width="36" height="36" rx="14" fill="#E94B3E"/>
<path d="M12.1802 19.1647V21.6221C12.1802 22.0019 12.6595 22.7378 12.9996 22.9068M12.1802 19.1647H18.4995M12.1802 19.1647V13.3236V12M24.8189 19.1647V21.6221C24.8189 22.0019 24.3397 22.7378 23.9996 22.9068M24.8189 19.1647H18.4995M24.8189 19.1647V13.3236V12M12.9996 22.9068V24.8237C12.9996 24.9378 13.0386 25.0485 13.1102 25.1373L13.3495 25.4344C13.4444 25.5523 13.5876 25.6208 13.7389 25.6208H14.3087C14.4651 25.6208 14.6124 25.5477 14.707 25.4231L14.9265 25.134C14.9925 25.0471 15.0282 24.9409 15.0282 24.8317V22.9068M12.9996 22.9068H15.0282M15.0282 22.9068H21.9708M23.9996 22.9068H21.9708M23.9996 22.9068V24.8237C23.9996 24.9378 23.9605 25.0485 23.889 25.1373L23.6497 25.4344C23.5548 25.5523 23.4116 25.6208 23.2603 25.6208H22.6903C22.534 25.6208 22.3866 25.5477 22.2921 25.4231L22.0726 25.134C22.0066 25.0471 21.9708 24.9409 21.9708 24.8317V22.9068M18.4995 10H23.4995C24.4995 10 24.8189 10 24.8189 11V12M18.4995 10H13.4995C12.4995 10 12.1802 10 12.1802 11V12M18.4995 10V19.1647M14.4998 21H16.4998M20.4998 21H22.4998M12.1802 12L10 13.3236V14.8236M24.8189 12L26.9996 13.3236V14.8236" stroke="white" stroke-linecap="round" stroke-linejoin="round"/>
</svg>
