<svg width="50" height="55" viewBox="0 0 50 55" fill="none" xmlns="http://www.w3.org/2000/svg">
<path d="M24.6 0C31.1243 0 37.3814 2.58608 41.9948 7.18931C46.6082 11.7925 49.2 18.0359 49.2 24.5459C49.2 32.9296 44.6189 39.7916 39.7919 44.7144C37.3797 47.1468 34.7483 49.3526 31.9308 51.3036L30.7664 52.0945L30.2197 52.4572L29.1893 53.1118L28.2709 53.6709L27.1338 54.3309C26.3617 54.7694 25.4885 55 24.6 55C23.7115 55 22.8384 54.7694 22.0662 54.3309L20.9291 53.6709L19.5078 52.7981L18.983 52.4572L17.8623 51.7127C14.8228 49.6599 11.9913 47.316 9.40813 44.7144C4.58107 39.7861 0 32.9296 0 24.5459C0 18.0359 2.59178 11.7925 7.20517 7.18931C11.8186 2.58608 18.0757 0 24.6 0Z" fill="#5491F5"/>
<path d="M14.3007 29.941V34.0367C14.3007 34.6696 15.0994 35.8962 15.6663 36.1778M14.3007 29.941H24.8329M14.3007 29.941V20.2059V17.9998M35.3651 29.941V34.0367C35.3651 34.6696 34.5664 35.8962 33.9996 36.1778M35.3651 29.941H24.8329M35.3651 29.941V20.2059V17.9998M15.6663 36.1778V39.4902C15.6663 39.6043 15.7053 39.715 15.7769 39.8038L16.3495 40.5148C16.4444 40.6326 16.5876 40.7012 16.7389 40.7012H18.0137C18.17 40.7012 18.3174 40.628 18.4119 40.5035L18.9456 39.8005C19.0116 39.7136 19.0474 39.6074 19.0474 39.4982V36.1778M15.6663 36.1778H19.0474M19.0474 36.1778H30.6184M33.9996 36.1778H30.6184M33.9996 36.1778V39.4902C33.9996 39.6043 33.9606 39.715 33.889 39.8038L33.3164 40.5148C33.2215 40.6326 33.0783 40.7012 32.927 40.7012H31.6521C31.4957 40.7012 31.3484 40.628 31.2538 40.5035L30.7202 39.8005C30.6541 39.7136 30.6184 39.6074 30.6184 39.4982V36.1778M24.8329 14.6665H33.1662C34.8329 14.6665 35.3651 14.6665 35.3651 16.3332V17.9998M24.8329 14.6665H16.4996C14.8329 14.6665 14.3007 14.6665 14.3007 16.3332V17.9998M24.8329 14.6665V29.941M18.1666 32.9999H21.5M28.1666 32.9999H31.5M14.3007 17.9998L10.667 20.2059V22.7059M35.3651 17.9998L38.9996 20.2059V22.7059" stroke="white" stroke-linecap="round" stroke-linejoin="round"/>
</svg>
