<svg width="24" height="24" viewBox="0 0 24 24" fill="none" xmlns="http://www.w3.org/2000/svg">
<path d="M14.6667 12C14.6667 12.5274 14.5103 13.043 14.2173 13.4815C13.9242 13.9201 13.5078 14.2618 13.0205 14.4637C12.5332 14.6655 11.997 14.7183 11.4798 14.6154C10.9625 14.5125 10.4873 14.2586 10.1144 13.8856C9.74144 13.5127 9.48747 13.0375 9.38457 12.5202C9.28168 12.003 9.33449 11.4668 9.53632 10.9795C9.73815 10.4922 10.0799 10.0758 10.5185 9.78275C10.957 9.48973 11.4726 9.33333 12 9.33333C12.7072 9.33333 13.3855 9.61428 13.8856 10.1144C14.3857 10.6145 14.6667 11.2928 14.6667 12ZM19.1111 10.2222H18.5867C18.4029 10.2215 18.2239 10.1638 18.0743 10.0572C17.9246 9.95053 17.8117 9.80012 17.7511 9.62667C17.672 9.46018 17.6466 9.27321 17.6785 9.09167C17.7103 8.91012 17.7979 8.74296 17.9289 8.61333L18.2933 8.24889C18.3766 8.16626 18.4428 8.06794 18.4879 7.95962C18.533 7.8513 18.5563 7.73512 18.5563 7.61778C18.5563 7.50043 18.533 7.38425 18.4879 7.27593C18.4428 7.16761 18.3766 7.0693 18.2933 6.98667L17.0311 5.71556C16.9485 5.63224 16.8502 5.56611 16.7418 5.52099C16.6335 5.47586 16.5173 5.45262 16.4 5.45262C16.2827 5.45262 16.1665 5.47586 16.0582 5.52099C15.9498 5.56611 15.8515 5.63224 15.7689 5.71556L15.4044 6.08C15.2748 6.21104 15.1077 6.29854 14.9261 6.33039C14.7446 6.36224 14.5576 6.33687 14.3911 6.25778C14.2129 6.19967 14.0576 6.08671 13.9475 5.93505C13.8373 5.78338 13.7779 5.60078 13.7778 5.41333V4.88889C13.7778 4.65314 13.6841 4.42705 13.5174 4.26035C13.3507 4.09365 13.1246 4 12.8889 4H11.1111C10.8754 4 10.6493 4.09365 10.4826 4.26035C10.3159 4.42705 10.2222 4.65314 10.2222 4.88889V5.41333C10.2215 5.59708 10.1638 5.77609 10.0572 5.92572C9.95053 6.07535 9.80012 6.18825 9.62667 6.24889V6.24889C9.46018 6.32798 9.27321 6.35335 9.09167 6.3215C8.91012 6.28965 8.74296 6.20215 8.61333 6.07111L8.24889 5.70667C8.16626 5.62335 8.06794 5.55722 7.95962 5.5121C7.8513 5.46697 7.73512 5.44373 7.61778 5.44373C7.50043 5.44373 7.38425 5.46697 7.27593 5.5121C7.16761 5.55722 7.0693 5.62335 6.98667 5.70667L5.71556 6.96889C5.63224 7.05152 5.56611 7.14983 5.52099 7.25815C5.47586 7.36647 5.45262 7.48266 5.45262 7.6C5.45262 7.71734 5.47586 7.83353 5.52099 7.94185C5.56611 8.05017 5.63224 8.14848 5.71556 8.23111L6.08 8.59556C6.21104 8.72518 6.29854 8.89234 6.33039 9.07389C6.36224 9.25544 6.33687 9.4424 6.25778 9.60889C6.19714 9.78235 6.08424 9.93275 5.93461 10.0394C5.78498 10.1461 5.60597 10.2037 5.42222 10.2044H4.88889C4.65314 10.2044 4.42705 10.2981 4.26035 10.4648C4.09365 10.6315 4 10.8576 4 11.0933V12.8711C4 13.1069 4.09365 13.333 4.26035 13.4997C4.42705 13.6663 4.65314 13.76 4.88889 13.76H5.41333C5.59708 13.7607 5.77609 13.8184 5.92572 13.925C6.07535 14.0317 6.18825 14.1821 6.24889 14.3556V14.3556C6.32798 14.522 6.35335 14.709 6.3215 14.8906C6.28965 15.0721 6.20215 15.2393 6.07111 15.3689L5.70667 15.7333C5.62335 15.816 5.55722 15.9143 5.5121 16.0226C5.46697 16.1309 5.44373 16.2471 5.44373 16.3644C5.44373 16.4818 5.46697 16.598 5.5121 16.7063C5.55722 16.8146 5.62335 16.9129 5.70667 16.9956L6.96 18.2489C7.04263 18.3322 7.14095 18.3983 7.24927 18.4435C7.35758 18.4886 7.47377 18.5118 7.59111 18.5118C7.70845 18.5118 7.82464 18.4886 7.93296 18.4435C8.04128 18.3983 8.13959 18.3322 8.22222 18.2489L8.58667 17.8844C8.71629 17.7534 8.88345 17.6659 9.065 17.6341C9.24655 17.6022 9.43351 17.6276 9.6 17.7067C9.77346 17.7673 9.92386 17.8802 10.0305 18.0298C10.1372 18.1795 10.1948 18.3585 10.1956 18.5422V19.1111C10.1956 19.3469 10.2892 19.573 10.4559 19.7397C10.6226 19.9064 10.8487 20 11.0844 20H12.8622C13.098 20 13.3241 19.9064 13.4908 19.7397C13.6575 19.573 13.7511 19.3469 13.7511 19.1111V18.5867C13.7518 18.4029 13.8095 18.2239 13.9162 18.0743C14.0228 17.9246 14.1732 17.8117 14.3467 17.7511C14.5132 17.672 14.7001 17.6466 14.8817 17.6785C15.0632 17.7103 15.2304 17.7979 15.36 17.9289L15.7244 18.2933C15.8071 18.3766 15.9054 18.4428 16.0137 18.4879C16.122 18.533 16.2382 18.5563 16.3556 18.5563C16.4729 18.5563 16.5891 18.533 16.6974 18.4879C16.8057 18.4428 16.904 18.3766 16.9867 18.2933L18.24 17.04C18.3233 16.9574 18.3894 16.8591 18.4346 16.7507C18.4797 16.6424 18.5029 16.5262 18.5029 16.4089C18.5029 16.2915 18.4797 16.1754 18.4346 16.067C18.3894 15.9587 18.3233 15.8604 18.24 15.7778L17.8756 15.4133C17.7445 15.2837 17.657 15.1165 17.6252 14.935C17.5933 14.7535 17.6187 14.5665 17.6978 14.4V14.4C17.7584 14.2265 17.8713 14.0761 18.0209 13.9695C18.1706 13.8628 18.3496 13.8052 18.5333 13.8044H19.1111C19.3469 13.8044 19.573 13.7108 19.7397 13.5441C19.9064 13.3774 20 13.1513 20 12.9156V11.1111C20 10.8754 19.9064 10.6493 19.7397 10.4826C19.573 10.3159 19.3469 10.2222 19.1111 10.2222Z" stroke="white" stroke-linecap="round" stroke-linejoin="round"/>
</svg>
